<?xml version="1.0" encoding="utf-8"?>
<!-- Generator: Adobe Illustrator 27.7.0, SVG Export Plug-In . SVG Version: 6.00 Build 0)  -->
<svg version="1.1" id="Layer_1" xmlns="http://www.w3.org/2000/svg" xmlns:xlink="http://www.w3.org/1999/xlink" x="0px" y="0px"
	 viewBox="0 0 300 300" style="enable-background:new 0 0 300 300;" xml:space="preserve">
<style type="text/css">
	.st0{fill:#FFFFFF;}
	.st1{fill:none;}
	.st2{font-family:'MyriadPro-Regular';}
	.st3{font-size:25px;}
	.st4{fill:none;stroke:#000000;stroke-miterlimit:10;}
</style>
<g>
	<path class="st0" d="M275.65,298H24.35C12.01,298,2,287.99,2,275.65V24.35C2,12.01,12.01,2,24.35,2h251.29
		C287.99,2,298,12.01,298,24.35v251.29C298,287.99,287.99,298,275.65,298z"/>
</g>
<rect x="25.36" y="226.29" class="st1" width="229.64" height="92.64"/>
<text transform="matrix(1 0 0 1 25.3564 244.0366)"><tspan x="0" y="0" class="st2 st3">OUR CASE </tspan><tspan x="0" y="30" class="st2 st3">STUDIES</tspan></text>
<circle cx="32" cy="37" r="6"/>
<circle class="st4" cx="48.5" cy="37.5" r="6"/>
<line class="st4" x1="221" y1="31.5" x2="264" y2="31.5"/>
<line class="st4" x1="264.5" y1="74" x2="264.5" y2="31"/>
<line class="st4" x1="215.25" y1="80.75" x2="264.75" y2="31.25"/>
</svg>
