<?xml version="1.0" encoding="utf-8"?>
<!-- Generator: Adobe Illustrator 27.7.0, SVG Export Plug-In . SVG Version: 6.00 Build 0)  -->
<svg version="1.1" id="Layer_1" xmlns="http://www.w3.org/2000/svg" xmlns:xlink="http://www.w3.org/1999/xlink" x="0px" y="0px"
	 viewBox="0 0 300 300" style="enable-background:new 0 0 300 300;" xml:space="preserve">
<style type="text/css">
	.st0{fill:#FDC449;}
	.st1{fill:none;}
	.st2{font-family:'MyriadPro-Regular';}
	.st3{font-size:22px;}
	.st4{font-size:53px;}
	.st5{font-size:28px;}
</style>
<g>
	<path class="st0" d="M275.65,298H24.35C12.01,298,2,287.99,2,275.65V24.35C2,12.01,12.01,2,24.35,2h251.29
		C287.99,2,298,12.01,298,24.35v251.29C298,287.99,287.99,298,275.65,298z"/>
</g>
<rect x="21.36" y="37.29" class="st1" width="229.64" height="92.64"/>
<text transform="matrix(1 0 0 1 21.3564 52.9062)"><tspan x="0" y="0" class="st2 st3">SUCCESSFUL </tspan><tspan x="0" y="26.4" class="st2 st3">PROJECTS</tspan></text>
<rect x="22.68" y="232.53" class="st1" width="160.85" height="65.12"/>
<text transform="matrix(1 0 0 1 22.6821 270.165)" class="st2 st4">700</text>
<rect x="102.73" y="215.14" class="st1" width="71.71" height="49.61"/>
<text transform="matrix(1 0 0 1 102.7285 235.0195)" class="st2 st5">+</text>
</svg>
